# Blender v2.82 (sub 7) OBJ File: ''
# www.blender.org
mtllib DEVIL 1 MESH_decimated(02).mtl
o mesh_0
v 1.450219 2.357476 -0.964724
v -0.033355 2.828573 -1.405932
v -1.099392 2.870091 -1.345788
v -1.161512 2.817088 -0.021491
v -1.138747 2.422440 0.533798
v -1.379806 2.450423 1.149335
v -1.429274 2.617556 1.468551
v -2.072375 3.740019 1.946000
v -1.602255 2.667902 1.983876
v -1.687334 2.148741 2.061854
v -2.418590 3.540087 2.001617
v -1.784820 1.636388 1.831700
v -2.168855 2.122154 1.883723
v -2.254559 2.692093 1.497284
v -1.677873 1.106674 0.869467
v -1.693746 1.873039 0.727464
v -1.871051 1.869409 -0.662121
v -2.385849 1.205185 -1.727522
v -2.255470 0.118291 -1.056984
v -2.020737 1.750362 -1.486612
v -1.579721 1.488322 -1.109394
v -1.367940 -0.109698 -1.014825
v -0.849118 0.455492 -0.299518
v -0.110790 0.781242 -0.029205
v 0.810543 0.507615 -0.275700
v 1.497442 1.539339 -1.018122
v 2.130607 1.775389 -1.610553
v 2.373152 1.197433 -1.743103
v 2.357221 -0.441289 -1.766154
v 1.433595 -2.273794 -0.444259
v 0.431334 -2.908013 0.880718
v 0.182765 -2.608935 1.180066
v 0.200580 -2.077791 1.206912
v 0.459133 -1.835654 1.112918
v 0.570504 -1.362513 1.135091
v 0.950200 -1.864784 0.776461
v 1.481384 -1.100164 0.272473
v 2.018897 -0.337378 0.011828
v 1.907635 -1.411907 -0.484224
v 1.408721 0.231550 0.887153
v 1.301776 0.621521 1.082447
v 0.914711 0.652615 1.324720
v 0.199131 0.419841 1.448730
v -0.058678 1.669484 1.122086
v -0.719184 1.930331 1.386722
v -0.820872 2.331995 0.803428
v -0.477609 1.010017 1.420214
v -0.796437 0.599316 1.336885
v -0.499677 0.236462 0.947012
v -0.272322 -0.096156 1.022736
v 0.004758 -0.621319 1.788566
v 0.388038 -0.917886 1.454440
v 0.058168 -0.865644 1.487721
v 0.179016 -0.973402 1.375615
v 0.271033 -1.064147 1.282328
v -0.141540 -1.013848 1.416130
v -0.166693 -0.916244 1.363551
v -0.331329 -1.012108 1.440796
v 0.098670 -1.398117 1.242088
v 0.083372 -1.869744 1.415313
v 0.001465 -1.743228 1.314606
v 0.301957 -1.710839 1.312001
v -0.033538 -2.005976 1.363775
v -0.276887 -2.077303 1.186735
v -0.489697 -1.822695 1.111193
v -0.412415 -1.620575 1.208897
v -0.418966 -0.697902 1.221788
v -0.339612 -1.081168 1.237840
v -0.424903 -0.868586 1.424392
v -0.194085 -0.842720 1.649342
v -0.067571 -0.867450 1.497107
v -0.114477 -1.010061 1.623944
v 0.031958 -0.933121 1.827559
v 0.138980 -0.987390 1.604552
v -1.280574 0.480550 0.970325
v -1.891979 -0.323640 0.432359
v -1.256537 -1.145827 0.802859
v -0.624424 -2.736233 0.757837
v -1.206633 -2.444974 -0.338990
v -0.830835 -2.703679 -0.487785
v -0.456969 -2.125705 -1.291504
v 0.037863 -2.156766 -1.029846
v 0.305586 -1.881602 -1.816119
v 1.686326 -1.690953 -1.689274
v 2.010228 -1.304394 -1.686212
v 2.141511 -0.659385 -1.725366
v 2.215742 0.374590 -1.973458
v 0.363714 0.109313 -0.212323
v -2.127975 0.362527 -1.954496
v -2.374305 -0.349328 -1.853118
v -1.902246 -1.580970 -0.600135
v -1.183307 -2.180694 -1.105327
v -0.444094 -1.811880 -1.715127
v 1.152715 -1.875899 -1.786394
v 1.573462 -0.832568 -1.353361
v 0.749605 -1.515380 -1.505595
v 0.041980 -1.517536 -1.638014
v -1.687669 -1.669001 -1.735847
v -2.161885 -0.808891 -1.709175
v -0.837577 -0.950218 -0.778713
v -0.507437 -0.508995 -0.437893
v 0.799593 -0.948135 -0.809871
v -0.782068 -1.512421 -1.516720
v -1.350150 -1.040912 -1.347182
v -2.010411 -1.343620 -1.693889
v -1.081208 -1.871236 -1.772163
v -1.731517 0.697103 -0.290931
v -1.631770 0.645836 0.690736
v -1.934811 -0.539692 -0.109856
v -1.141336 -2.252264 0.179737
v 2.300107 0.252646 -1.309687
v 0.015977 -2.769278 -0.173562
v -0.436336 -3.008415 0.446168
v -0.045241 -3.001130 0.982539
v -1.154259 -0.527855 1.002836
v 0.369552 -3.045407 0.532341
v 0.950133 -2.703320 -0.523097
v 0.434432 -0.776237 1.229485
v 0.308598 -1.017197 1.409984
v 0.098509 0.107810 1.277074
v -0.275107 0.453726 1.447493
v -0.103107 0.096910 1.270505
v 0.414191 0.227966 0.969506
v 1.253979 -0.413310 0.950365
v 0.271215 -0.110715 1.041153
v -0.035324 -1.638567 1.463440
v -0.117781 -1.454121 1.280309
v -0.232729 3.006470 0.294295
v -0.664202 3.144853 -0.747468
v 0.180604 3.279427 -1.133433
v -0.044476 3.199012 -1.380254
v 1.175311 2.919729 -1.376187
v 1.564258 2.490567 -1.431038
v 1.024365 2.773933 -1.335464
v 0.794302 1.294107 -0.256972
v -0.008395 1.801750 -0.219578
v -0.780960 1.402216 -0.274230
v -1.543524 2.017936 0.423979
v -1.507629 2.266756 0.885227
v -2.403379 4.171233 1.695893
v -1.848464 2.896571 1.445244
v -1.913280 2.184785 -1.552938
v -1.616420 2.389572 -1.410290
v -0.714355 2.160181 -0.720680
v 0.801085 2.165348 -0.765031
v -1.607904 2.336950 -1.004046
v -1.550962 2.440643 -0.161378
v -1.210890 2.549805 -1.237874
v -1.519563 2.635206 -1.382280
v 1.724340 2.032296 -0.225183
v 1.638945 1.649042 0.370804
v 1.854401 1.928998 1.006768
v 2.148793 3.336061 1.594687
v 2.271956 2.468840 1.599174
v 2.423315 4.132916 1.686795
v 2.360947 3.211012 1.993803
v 2.171463 3.855338 1.940228
v 1.571686 2.334904 2.041333
v 1.204833 2.376488 1.569184
v 0.342187 1.930766 1.093132
v 0.475104 0.974306 1.425598
v -0.156071 2.861175 1.016500
v -0.401966 2.071318 1.053183
v -0.275429 2.549896 0.685962
v 1.694037 2.499500 -1.432724
v 1.414256 2.587998 -0.087245
v 0.731028 3.052786 -0.193658
v 0.580538 2.861066 0.369788
v 1.111032 2.384727 0.625364
v 1.440766 2.141053 0.463845
v 1.668607 2.345736 1.091059
v 0.417730 2.269243 0.885382
v 1.013574 2.312865 1.085513
v 1.589792 2.752645 1.479827
v 0.168021 2.830271 1.056734
v 0.102912 2.656250 0.652492
v 1.925962 2.297308 2.057896
v 1.654336 1.541597 1.803275
v 2.117154 2.006184 1.820299
v 1.604204 0.926152 0.820377
v 1.847126 -0.370987 0.481984
v 1.709647 0.652307 -0.268007
v 1.911528 0.133997 0.209958
vn -0.0249 -0.6788 -0.7339
vn 0.0130 -0.6863 -0.7272
vn -0.0536 0.0675 -0.9963
vn -0.2972 0.9311 -0.2114
vn -0.6924 0.5744 0.4366
vn -0.1418 0.8436 -0.5180
vn -0.0449 0.9300 0.3649
vn 0.4030 0.5440 -0.7360
vn 0.8296 0.4310 -0.3549
vn 0.8816 0.3957 0.2573
vn -0.1079 0.4355 0.8937
vn 0.1030 0.0970 0.9899
vn 0.1861 0.1161 0.9757
vn -0.3370 -0.1368 0.9315
vn -0.3097 -0.3400 0.8880
vn -0.7017 -0.5965 0.3896
vn -0.9446 -0.2693 -0.1877
vn -0.8471 -0.5198 0.1103
vn -0.9895 -0.0459 -0.1370
vn -0.9210 0.1185 0.3711
vn 0.1659 0.3035 -0.9383
vn 0.6988 0.1794 -0.6924
vn 0.7206 -0.0334 -0.6926
vn 0.7818 0.0669 -0.6199
vn 0.3437 0.0003 -0.9391
vn -0.2286 0.1024 -0.9681
vn -0.2535 0.0178 -0.9672
vn -0.7347 0.0010 -0.6784
vn -0.5264 0.3211 -0.7873
vn 0.9148 -0.0223 0.4033
vn 0.8834 0.1373 0.4481
vn 0.8035 0.5414 0.2477
vn 0.9810 -0.0437 0.1892
vn 0.9625 -0.1893 0.1942
vn 0.8764 -0.4805 0.0318
vn 0.6554 -0.6757 -0.3375
vn 0.6495 -0.7519 0.1136
vn 0.6736 -0.7205 0.1647
vn 0.6028 -0.3690 0.7074
vn 0.5129 -0.2072 0.8331
vn 0.7535 -0.3383 0.5638
vn 0.6213 -0.0726 0.7802
vn 0.7248 -0.1391 0.6747
vn 0.0761 -0.4297 0.8997
vn 0.2798 -0.7882 0.5481
vn 0.1870 -0.0521 0.9810
vn 0.0101 0.4066 0.9136
vn 0.4877 0.5349 0.6899
vn 0.6957 0.6991 0.1652
vn 0.1946 0.8234 0.5331
vn 0.6749 0.6575 0.3351
vn -0.1084 0.8737 -0.4742
vn 0.5761 0.0283 0.8169
vn 0.5898 0.1834 0.7864
vn 0.1817 -0.3291 0.9266
vn -0.2313 -0.7937 0.5626
vn -0.8791 0.2490 0.4064
vn -0.7515 0.3080 0.5835
vn 0.5468 -0.2073 0.8112
vn -0.3883 -0.8220 0.4166
vn 0.0004 -0.9357 0.3529
vn 0.1165 0.4941 0.8615
vn 0.0330 -0.9466 0.3207
vn -0.0701 -0.0836 0.9940
vn 0.1243 0.1849 0.9749
vn -0.5563 -0.1795 0.8114
vn -0.0969 -0.8253 0.5564
vn -0.4637 0.0637 0.8837
vn 0.0923 -0.8092 0.5802
vn 0.3977 0.7151 0.5749
vn 0.3304 -0.5685 0.7534
vn -0.0176 -0.9188 0.3944
vn -0.5359 -0.2049 0.8191
vn -0.9573 -0.2067 -0.2022
vn -0.8298 -0.5171 0.2098
vn -0.1920 0.3501 0.9168
vn -0.0987 0.1563 0.9828
vn -0.7690 0.3617 0.5270
vn -0.5751 0.6339 0.5172
vn -0.6106 -0.3151 0.7265
vn -0.6174 -0.3968 0.6792
vn -0.8158 0.0969 0.5701
vn 0.4875 -0.8720 -0.0432
vn 0.4857 -0.6647 -0.5677
vn 0.0855 -0.9953 -0.0459
vn -0.6602 -0.4096 0.6296
vn 0.1069 -0.9531 0.2832
vn 0.7387 0.6525 0.1690
vn 0.9059 0.1295 0.4032
vn -0.6070 0.0463 0.7934
vn -0.5624 -0.7356 -0.3776
vn 0.1254 -0.9921 0.0017
vn 0.1748 -0.6140 0.7697
vn -0.9104 0.3984 0.1113
vn -0.6328 -0.0363 0.7734
vn -0.6299 -0.1428 0.7634
vn -0.5342 -0.2353 0.8120
vn -0.7472 -0.5867 0.3120
vn -0.7469 -0.6540 0.1204
vn -0.5735 -0.8188 -0.0249
vn 0.2134 -0.8375 -0.5030
vn 0.1501 -0.8059 -0.5727
vn 0.0984 -0.9493 -0.2987
vn -0.1587 -0.0276 -0.9869
vn 0.0560 -0.2367 -0.9700
vn -0.7560 0.0678 -0.6511
vn -0.7753 0.0640 -0.6284
vn -0.4048 0.3177 -0.8575
vn 0.0417 0.2900 -0.9561
vn 0.2470 0.2228 -0.9431
vn 0.6381 0.0391 -0.7690
vn 0.8965 -0.1155 -0.4277
vn -0.5328 0.0642 -0.8438
vn -0.9639 -0.1375 0.2280
vn -0.6165 -0.7383 -0.2734
vn -0.0919 -0.7988 -0.5945
vn -0.0879 0.3857 -0.9184
vn 0.0282 0.4556 -0.8897
vn 0.2403 -0.1938 -0.9512
vn -0.5603 0.0639 -0.8258
vn -0.5040 -0.1671 -0.8474
vn -0.3078 -0.8442 -0.4389
vn -0.7681 -0.6373 -0.0623
vn 0.1206 -0.9074 -0.4026
vn -0.2082 0.4454 -0.8708
vn 0.1301 0.6957 -0.7065
vn -0.1916 0.4412 -0.8767
vn -0.9399 -0.3409 0.0190
vn 0.2023 -0.2063 -0.9573
vn 0.6983 0.2524 -0.6699
vn 0.6859 0.2398 -0.6870
vn 0.4746 0.2875 -0.8319
vn -0.0157 0.6186 -0.7856
vn -0.0971 0.4590 -0.8831
vn -0.5791 0.2847 -0.7640
vn -0.4790 0.6969 -0.5338
vn -0.0130 0.7754 -0.6313
vn 0.0059 0.7957 -0.6057
vn 0.4482 0.7270 -0.5201
vn 0.3191 0.3240 -0.8906
vn 0.5785 0.1409 -0.8034
vn 0.8260 0.2191 -0.5193
vn -0.5758 -0.7673 -0.2822
vn 0.0760 0.1333 -0.9882
vn -0.7102 -0.7040 -0.0032
vn 0.0021 0.9996 -0.0277
vn -0.1086 0.6350 -0.7648
vn -0.0251 0.1033 -0.9943
vn 0.1884 0.4605 -0.8674
vn 0.1919 0.5285 -0.8269
vn -0.9870 -0.0202 0.1592
vn -0.1533 -0.7918 -0.5912
vn -0.7853 -0.5416 0.3000
vn -0.9634 -0.1422 0.2273
vn -0.8463 0.0666 0.5285
vn -0.8061 0.5811 0.1123
vn -0.6779 -0.3238 0.6600
vn -0.8170 -0.5106 0.2680
vn -0.9594 -0.2278 0.1666
vn -0.7961 -0.2780 0.5375
vn -0.8496 -0.3232 0.4168
vn -0.8244 -0.3405 0.4521
vn -0.0969 -0.7861 -0.6104
vn -0.9426 0.1776 0.2828
vn 0.7592 -0.6350 -0.1432
vn 0.0178 -0.9456 -0.3249
vn -0.1594 -0.8010 -0.5770
vn -0.0040 -0.9320 -0.3625
vn 0.0488 -0.9433 -0.3284
vn -0.5022 -0.7784 0.3767
vn -0.5558 -0.2273 0.7996
vn -0.0350 0.4458 -0.8945
vn -0.3348 -0.0924 0.9377
vn -0.3336 -0.0927 0.9381
vn -0.5053 -0.1889 0.8420
vn -0.2896 -0.0199 0.9570
vn -0.6199 -0.0524 0.7829
vn 0.0415 0.0374 0.9984
vn -0.3089 -0.2785 0.9094
vn -0.4612 -0.3002 0.8350
vn -0.0512 -0.9974 0.0509
vn 0.2467 -0.9156 0.3174
vn -0.0599 -0.9394 -0.3375
vn 0.2761 -0.5555 0.7843
vn -0.0422 -0.0490 0.9979
vn -0.1751 -0.8105 -0.5589
vn 0.3624 -0.8702 -0.3338
vn 0.9283 -0.3689 0.0462
vn 0.9899 -0.0116 0.1415
vn 0.8258 -0.0001 -0.5640
vn -0.3487 -0.6531 0.6722
vn 0.0222 -0.4132 0.9104
vn 0.1854 0.3276 0.9264
vn 0.7809 -0.6246 -0.0001
vn 0.7580 0.4700 0.4523
vn 0.7977 0.2742 0.5371
vn 0.8810 0.3158 0.3524
vn 0.7195 -0.1608 0.6756
vn 0.6930 -0.5060 0.5136
vn -0.0025 -0.4814 0.8765
vn -0.0350 -0.4576 0.8885
vn -0.6313 -0.5669 0.5293
vn -0.0578 0.5783 0.8138
vn -0.6642 -0.2979 0.6857
vn -0.3296 -0.8030 0.4965
vn 0.0004 0.0415 0.9991
vn -0.0039 0.0476 0.9989
vn 0.4159 0.1419 0.8983
vn -0.2156 -0.0306 0.9760
vn 0.1365 0.1495 0.9793
vn 0.3490 -0.0695 0.9345
vn 0.8283 -0.4923 0.2674
vn 0.6142 -0.2194 0.7580
vn 0.0820 0.0777 0.9936
vn 0.3455 -0.8074 0.4783
vn 0.1813 0.3087 0.9337
vn 0.8488 -0.5084 -0.1450
vn 0.5149 -0.6579 0.5496
vn 0.2318 -0.2334 0.9444
vn 0.4438 0.4604 0.7688
vn 0.0917 -0.8037 0.5879
vn -0.4640 0.5110 0.7236
vn -0.0518 0.6919 0.7202
vn -0.4054 0.3941 0.8248
vn 0.3951 -0.0559 0.9169
vn -0.3858 -0.8368 0.3884
vn -0.3094 0.7299 0.6096
vn -0.3429 0.7590 0.5535
vn -0.2706 0.9333 0.2360
vn -0.0815 0.9830 0.1643
vn 0.1993 0.8636 -0.4631
vn -0.4833 -0.8035 -0.3475
vn -0.6070 -0.3968 -0.6886
vn 0.1703 -0.1972 -0.9655
vn -0.6089 0.7897 0.0756
vn -0.3680 0.4905 -0.7899
vn -0.3556 0.5062 -0.7857
vn -0.1820 0.1128 -0.9768
vn 0.5365 0.7789 -0.3247
vn 0.2821 0.7182 -0.6360
vn -0.6190 0.7104 -0.3350
vn -0.8549 0.4815 -0.1932
vn -0.9212 0.3098 0.2354
vn 0.7830 -0.2786 -0.5562
vn 0.6836 0.1122 -0.7212
vn 0.3226 0.1272 -0.9380
vn 0.6278 -0.4353 -0.6453
vn -0.3367 -0.4724 -0.8146
vn -0.8977 0.4002 0.1842
vn 0.8466 -0.5253 -0.0858
vn 0.5574 -0.2583 -0.7891
vn -0.9160 0.3626 0.1718
vn -0.7039 0.5715 0.4217
vn 0.3165 -0.5019 -0.8049
vn -0.3057 0.0444 -0.9511
vn -0.7656 0.6381 0.0820
vn 0.4813 -0.0904 -0.8719
vn -0.4841 0.8736 -0.0491
vn -0.5250 0.8507 0.0244
vn -0.7091 0.6990 0.0931
vn 0.4099 -0.0578 -0.9103
vn 0.4103 -0.9033 -0.1256
vn 0.2969 -0.3961 -0.8689
vn 0.0458 -0.7762 -0.6288
vn 0.4717 -0.4246 -0.7728
vn -0.0138 -0.8224 -0.5687
vn -0.0183 -0.7066 -0.7074
vn -0.0677 -0.6798 -0.7303
vn 0.0470 -0.3136 -0.9484
vn 0.0193 0.0697 -0.9974
vn -0.2109 0.9697 -0.1236
vn -0.9777 -0.0719 -0.1971
vn -0.9848 -0.1707 -0.0333
vn -0.8559 -0.1113 -0.5051
vn -0.9889 -0.0777 0.1264
vn -0.9937 -0.0531 0.0982
vn -0.1508 -0.1666 -0.9744
vn -0.6582 -0.1053 -0.7454
vn 0.9911 -0.0147 0.1326
vn 0.5443 0.3926 -0.7414
vn 0.6315 0.0857 -0.7706
vn 0.8604 -0.1227 -0.4946
vn 0.2408 0.0292 -0.9701
vn 0.9944 -0.0873 -0.0601
vn 0.9537 -0.2222 0.2028
vn 0.5532 0.2293 0.8009
vn -0.0241 0.0758 0.9968
vn -0.0372 0.0876 0.9955
vn -0.6007 0.6070 0.5202
vn -0.6365 0.1728 0.7517
vn -0.1333 0.3088 0.9417
vn -0.1151 0.0818 0.9900
vn -0.9521 0.2993 0.0620
vn -0.0796 0.6200 0.7806
vn -0.2048 -0.0608 -0.9769
vn -0.6848 0.0080 -0.7287
vn -0.7767 -0.5295 -0.3411
vn 0.6327 0.7701 0.0809
vn 0.4741 0.7872 0.3945
vn 0.4833 0.7658 0.4241
vn 0.7965 0.4056 -0.4484
vn 0.8977 0.3007 0.3220
vn 0.8644 0.4101 0.2910
vn 0.6627 0.5969 0.4523
vn 0.8626 0.4838 0.1476
vn 0.9182 0.3380 0.2066
vn 0.8776 0.4464 0.1746
vn 0.6021 0.4073 -0.6867
vn 0.5579 0.8235 -0.1034
vn 0.1845 0.6163 0.7656
vn 0.1331 0.9269 0.3509
vn 0.0558 0.9776 0.2031
vn 0.3452 0.9382 0.0241
vn 0.5469 0.8296 0.1121
vn -0.0204 0.1085 -0.9939
vn -0.0280 0.2225 -0.9745
vn 0.1895 0.6148 0.7656
vn -0.1155 0.9848 0.1293
vn -0.0508 0.9883 0.1436
vn -0.0284 0.6876 -0.7255
vn -0.4524 0.5687 -0.6870
vn 0.1310 0.0692 -0.9890
vn -0.8166 0.5281 -0.2331
vn -0.6685 0.7243 0.1691
vn -0.3023 0.5467 0.7808
vn 0.7960 0.1775 0.5787
vn -0.0477 0.0312 0.9984
vn -0.0251 0.1481 0.9887
vn -0.7316 0.3283 0.5974
vn -0.6616 0.5581 -0.5008
vn -0.4923 0.8667 0.0807
vn -0.2641 0.7479 -0.6090
vn -0.1173 0.6529 0.7483
vn 0.0719 0.7460 0.6620
vn 0.1369 0.9017 -0.4102
vn 0.8196 0.4664 -0.3328
vn -0.0993 0.6532 0.7506
vn -0.0593 -0.3715 0.9265
vn -0.2351 -0.3018 0.9239
vn -0.0757 -0.2938 0.9529
vn 0.3614 -0.6569 0.6617
vn 0.3878 -0.4164 0.8223
vn 0.6056 -0.6215 0.4971
vn 0.7817 -0.5811 0.2266
vn 0.9276 0.0784 0.3652
vn 0.9300 -0.3556 -0.0930
vn 0.9520 -0.1934 -0.2374
vn 0.5994 -0.2316 0.7662
vn 0.9955 0.0105 0.0938
vn 0.6033 -0.0936 0.7920
vn 0.9356 0.0674 0.3466
vn 0.9606 0.1119 0.2544
vn 0.9321 0.3623 -0.0008
vn 0.8135 -0.2069 0.5435
vn 0.8589 -0.4812 0.1753
vn 0.6226 -0.0849 0.7780
vn 0.4475 -0.5549 0.7013
vn 0.6648 -0.1745 0.7264
vn 0.5471 -0.1907 0.8150
vn 0.3898 -0.0595 0.9190
vn 0.8080 -0.4255 0.4075
vn 0.8022 -0.3507 0.4832
usemtl Default_OBJ
s off
f 145//1 134//1 1//1
f 145//2 2//2 134//2
f 2//3 3//3 131//3
f 131//4 3//4 129//4
f 138//5 5//5 4//5
f 6//6 46//6 139//6
f 46//7 5//7 139//7
f 8//8 7//8 141//8
f 140//9 8//9 141//9
f 7//10 8//10 9//10
f 8//11 140//11 11//11
f 10//12 8//12 11//12
f 10//13 9//13 8//13
f 10//14 11//14 13//14
f 10//15 13//15 12//15
f 12//16 13//16 75//16
f 13//17 14//17 15//17
f 75//18 13//18 15//18
f 15//19 16//19 108//19
f 19//20 17//20 18//20
f 18//21 20//21 89//21
f 89//22 20//22 21//22
f 137//23 23//23 21//23
f 23//24 22//24 21//24
f 137//25 24//25 23//25
f 25//26 88//26 24//26
f 25//27 24//27 135//27
f 26//28 25//28 135//28
f 87//29 26//29 28//29
f 28//30 150//30 182//30
f 182//31 111//31 28//31
f 183//32 111//32 182//32
f 38//33 29//33 111//33
f 29//34 38//34 39//34
f 30//35 85//35 39//35
f 94//36 30//36 117//36
f 30//37 116//37 117//37
f 30//38 31//38 116//38
f 33//39 34//39 60//39
f 35//40 36//40 124//40
f 39//41 38//41 37//41
f 40//42 124//42 181//42
f 41//43 40//43 180//43
f 41//44 123//44 40//44
f 42//45 123//45 41//45
f 42//46 161//46 43//46
f 161//47 44//47 47//47
f 45//48 44//48 163//48
f 45//49 7//49 9//49
f 163//50 46//50 45//50
f 45//51 46//51 7//51
f 7//52 46//52 6//52
f 10//53 45//53 9//53
f 47//54 45//54 10//54
f 48//55 47//55 10//55
f 75//56 49//56 48//56
f 70//57 122//57 50//57
f 70//58 51//58 122//58
f 74//59 52//59 51//59
f 54//60 55//60 119//60
f 56//61 68//61 55//61
f 58//62 56//62 57//62
f 58//63 68//63 56//63
f 59//64 55//64 68//64
f 127//65 59//65 68//65
f 65//66 126//66 66//66
f 61//67 126//67 65//67
f 63//68 60//68 65//68
f 61//69 34//69 62//69
f 34//70 61//70 60//70
f 60//71 63//71 33//71
f 33//72 63//72 64//72
f 64//73 63//73 65//73
f 68//74 69//74 67//74
f 68//75 58//75 69//75
f 50//76 115//76 67//76
f 50//77 49//77 115//77
f 67//78 70//78 50//78
f 69//79 70//79 67//79
f 72//80 69//80 58//80
f 72//81 70//81 69//81
f 56//82 71//82 57//82
f 58//83 57//83 71//83
f 58//84 71//84 72//84
f 74//85 72//85 54//85
f 70//86 72//86 73//86
f 72//87 74//87 73//87
f 54//88 53//88 74//88
f 51//89 73//89 74//89
f 70//90 73//90 51//90
f 53//91 119//91 74//91
f 54//92 72//92 56//92
f 54//93 56//93 55//93
f 71//94 56//94 72//94
f 75//95 108//95 76//95
f 76//96 77//96 115//96
f 78//97 65//97 77//97
f 79//98 113//98 110//98
f 113//99 78//99 110//99
f 80//100 113//100 79//100
f 82//101 80//101 81//101
f 82//102 112//102 80//102
f 83//103 82//103 81//103
f 86//104 29//104 85//104
f 86//105 87//105 29//105
f 95//106 26//106 87//106
f 26//107 95//107 25//107
f 25//108 102//108 88//108
f 24//109 88//109 101//109
f 24//110 101//110 23//110
f 99//111 21//111 22//111
f 99//112 89//112 21//112
f 90//113 18//113 89//113
f 91//114 109//114 90//114
f 92//115 80//115 79//115
f 93//116 81//116 92//116
f 97//117 83//117 93//117
f 94//118 83//118 97//118
f 85//119 84//119 94//119
f 85//120 95//120 86//120
f 95//121 87//121 86//121
f 106//122 92//122 98//122
f 79//123 91//123 105//123
f 93//124 92//124 106//124
f 95//125 94//125 96//125
f 94//126 97//126 96//126
f 95//127 85//127 94//127
f 91//128 90//128 105//128
f 99//129 90//129 89//129
f 22//130 100//130 104//130
f 23//131 100//131 22//131
f 23//132 101//132 100//132
f 102//133 100//133 101//133
f 88//134 102//134 101//134
f 95//135 102//135 25//135
f 95//136 96//136 102//136
f 102//137 96//137 100//137
f 96//138 103//138 100//138
f 100//139 103//139 104//139
f 104//140 105//140 22//140
f 105//141 99//141 22//141
f 105//142 90//142 99//142
f 92//143 79//143 105//143
f 106//144 97//144 93//144
f 92//145 105//145 98//145
f 96//146 97//146 103//146
f 103//147 97//147 106//147
f 106//148 98//148 105//148
f 103//149 106//149 105//149
f 103//150 105//150 104//150
f 19//151 18//151 90//151
f 83//152 81//152 93//152
f 79//153 110//153 91//153
f 109//154 19//154 90//154
f 107//155 17//155 19//155
f 19//156 108//156 107//156
f 108//157 75//157 15//157
f 77//158 76//158 109//158
f 19//159 109//159 76//159
f 110//160 109//160 91//160
f 77//161 109//161 110//161
f 77//162 110//162 78//162
f 81//163 80//163 92//163
f 19//164 76//164 108//164
f 84//165 85//165 30//165
f 83//166 94//166 82//166
f 82//167 117//167 112//167
f 112//168 116//168 113//168
f 113//169 80//169 112//169
f 113//170 114//170 78//170
f 78//171 64//171 65//171
f 66//172 127//172 65//172
f 127//173 68//173 65//173
f 115//174 65//174 68//174
f 77//175 65//175 115//175
f 68//176 67//176 115//176
f 115//177 75//177 76//177
f 75//178 115//178 49//178
f 32//179 64//179 114//179
f 114//180 64//180 78//180
f 116//181 114//181 113//181
f 116//182 31//182 114//182
f 117//183 116//183 112//183
f 31//184 32//184 114//184
f 64//185 32//185 33//185
f 94//186 117//186 82//186
f 30//187 94//187 84//187
f 85//188 29//188 39//188
f 29//189 28//189 111//189
f 87//190 28//190 29//190
f 48//191 12//191 75//191
f 48//192 10//192 12//192
f 62//193 35//193 59//193
f 55//194 52//194 119//194
f 118//195 51//195 52//195
f 51//196 118//196 120//196
f 125//197 120//197 118//197
f 120//198 125//198 123//198
f 123//199 43//199 120//199
f 43//200 122//200 120//200
f 121//201 122//201 43//201
f 121//202 49//202 122//202
f 122//203 51//203 120//203
f 50//204 122//204 49//204
f 49//205 121//205 48//205
f 121//206 43//206 161//206
f 47//207 121//207 161//207
f 44//208 45//208 47//208
f 121//209 47//209 48//209
f 123//210 125//210 124//210
f 118//211 35//211 124//211
f 38//212 181//212 37//212
f 181//213 124//213 36//213
f 124//214 40//214 123//214
f 43//215 123//215 42//215
f 125//216 118//216 124//216
f 52//217 55//217 118//217
f 119//218 52//218 74//218
f 55//219 59//219 35//219
f 62//220 59//220 126//220
f 62//221 126//221 61//221
f 126//222 127//222 66//222
f 59//223 127//223 126//223
f 61//224 65//224 60//224
f 35//225 118//225 55//225
f 53//226 54//226 119//226
f 46//227 128//227 5//227
f 5//228 128//228 4//228
f 128//229 129//229 4//229
f 130//230 129//230 128//230
f 132//231 131//231 130//231
f 133//232 1//232 134//232
f 145//233 26//233 135//233
f 136//234 24//234 137//234
f 16//235 138//235 17//235
f 14//236 139//236 16//236
f 14//237 141//237 139//237
f 14//238 140//238 141//238
f 7//239 6//239 141//239
f 141//240 6//240 139//240
f 139//241 5//241 138//241
f 16//242 139//242 138//242
f 138//243 147//243 17//243
f 18//244 142//244 20//244
f 20//245 146//245 21//245
f 144//246 21//246 146//246
f 144//247 137//247 21//247
f 145//248 135//248 136//248
f 18//249 17//249 142//249
f 20//250 143//250 146//250
f 142//251 143//251 20//251
f 147//252 142//252 17//252
f 138//253 4//253 147//253
f 136//254 137//254 144//254
f 1//255 26//255 145//255
f 149//256 142//256 147//256
f 149//257 143//257 142//257
f 3//258 149//258 129//258
f 129//259 149//259 4//259
f 4//260 149//260 147//260
f 148//261 143//261 149//261
f 146//262 143//262 148//262
f 148//263 149//263 3//263
f 144//264 146//264 148//264
f 3//265 144//265 148//265
f 145//266 136//266 144//266
f 145//267 144//267 2//267
f 2//268 144//268 3//268
f 134//269 2//269 132//269
f 132//270 2//270 131//270
f 130//271 131//271 129//271
f 11//272 140//272 14//272
f 11//273 14//273 13//273
f 14//274 16//274 15//274
f 16//275 17//275 107//275
f 108//276 16//276 107//276
f 135//277 24//277 136//277
f 26//278 27//278 28//278
f 182//279 150//279 151//279
f 152//280 171//280 154//280
f 171//281 153//281 154//281
f 180//282 152//282 154//282
f 155//283 154//283 153//283
f 154//284 155//284 156//284
f 154//285 156//285 179//285
f 156//286 155//286 157//286
f 156//287 157//287 158//287
f 177//288 156//288 158//288
f 158//289 159//289 160//289
f 158//290 160//290 161//290
f 161//291 160//291 44//291
f 163//292 175//292 162//292
f 163//293 162//293 164//293
f 163//294 164//294 46//294
f 133//295 134//295 132//295
f 26//296 1//296 27//296
f 1//297 133//297 27//297
f 165//298 132//298 166//298
f 166//299 167//299 168//299
f 169//300 166//300 168//300
f 151//301 170//301 152//301
f 151//302 150//302 170//302
f 150//303 166//303 170//303
f 170//304 166//304 169//304
f 27//305 165//305 166//305
f 28//306 27//306 150//306
f 27//307 166//307 150//307
f 152//308 169//308 171//308
f 152//309 170//309 169//309
f 169//310 168//310 172//310
f 167//311 128//311 168//311
f 130//312 128//312 167//312
f 132//313 130//313 167//313
f 132//314 167//314 166//314
f 165//315 133//315 132//315
f 27//316 133//316 165//316
f 172//317 168//317 176//317
f 173//318 169//318 172//318
f 171//319 169//319 173//319
f 174//320 171//320 173//320
f 153//321 171//321 174//321
f 155//322 153//322 174//322
f 155//323 174//323 157//323
f 174//324 173//324 159//324
f 160//325 173//325 172//325
f 175//326 160//326 172//326
f 160//327 175//327 163//327
f 163//328 44//328 160//328
f 158//329 157//329 159//329
f 159//330 157//330 174//330
f 159//331 173//331 160//331
f 162//332 176//332 164//332
f 176//333 128//333 164//333
f 176//334 168//334 128//334
f 175//335 176//335 162//335
f 172//336 176//336 175//336
f 164//337 128//337 46//337
f 42//338 158//338 161//338
f 178//339 158//339 42//339
f 178//340 177//340 158//340
f 41//341 178//341 42//341
f 177//342 178//342 179//342
f 41//343 179//343 178//343
f 180//344 179//344 41//344
f 183//345 180//345 181//345
f 180//346 154//346 179//346
f 180//347 151//347 152//347
f 179//348 156//348 177//348
f 182//349 151//349 180//349
f 181//350 180//350 40//350
f 38//351 183//351 181//351
f 111//352 183//352 38//352
f 182//353 180//353 183//353
f 39//354 37//354 36//354
f 37//355 181//355 36//355
f 35//356 62//356 36//356
f 36//357 62//357 34//357
f 31//358 34//358 32//358
f 36//359 34//359 31//359
f 33//360 32//360 34//360
f 39//361 31//361 30//361
f 39//362 36//362 31//362
