<svg width="325" height="325" viewBox="0 0 325 325" fill="none" xmlns="http://www.w3.org/2000/svg">
<g clip-path="url(#clip0)">
<path d="M295.904 49.732H29.015C13.016 49.732 0 62.738 0 78.75V246.179C0 262.193 13.021 275.2 29.015 275.2H295.904C311.925 275.2 324.931 262.193 324.931 246.179V78.75C324.932 62.738 311.925 49.732 295.904 49.732ZM196.771 173.011L153.212 204.74C150.696 206.572 147.709 207.497 144.727 207.497C142.494 207.497 140.245 206.98 138.185 205.93C133.351 203.474 130.307 198.508 130.307 193.079V129.62C130.307 124.188 133.351 119.228 138.185 116.761C143.022 114.308 148.823 114.764 153.212 117.956L196.771 149.682C200.5 152.409 202.704 156.729 202.704 161.337C202.704 165.948 200.5 170.284 196.771 173.011Z" fill="white"/>
</g>
<defs>
<clipPath id="clip0">
<rect width="324.932" height="324.932" fill="white"/>
</clipPath>
</defs>
</svg>
